<svg width="1843" height="20" viewBox="0 0 1843 20" fill="none" xmlns="http://www.w3.org/2000/svg">
<path d="M1823.6 19.75L1804.84 -2.06144e-06L1842.36 5.96046e-07L1823.6 19.75Z" fill="#7A1487"/>
<path d="M1786.07 19.75L1767.31 -2.46378e-06L1804.84 1.93715e-07L1786.07 19.75Z" fill="#DB366E"/>
<path d="M1748.55 19.75L1729.79 -2.06144e-06L1767.31 5.96046e-07L1748.55 19.75Z" fill="#7A1487"/>
<path d="M1711.02 19.75L1692.26 -2.46378e-06L1729.79 1.93715e-07L1711.02 19.75Z" fill="#DB366E"/>
<path d="M1673.99 19.75L1655.72 -2.39384e-06L1692.26 1.93715e-07L1673.99 19.75Z" fill="#7A1487"/>
<path d="M1637.46 19.75L1619.19 -2.39384e-06L1655.72 1.93715e-07L1637.46 19.75Z" fill="#DB366E"/>
<path d="M1600.92 19.75L1582.65 -2.39384e-06L1619.19 1.93715e-07L1600.92 19.75Z" fill="#7A1487"/>
<path d="M1564.38 19.75L1546.11 -2.39384e-06L1582.65 1.93715e-07L1564.38 19.75Z" fill="#DB366E"/>
<path d="M1527.84 19.75L1509.57 -2.39384e-06L1546.11 1.93715e-07L1527.84 19.75Z" fill="#7A1487"/>
<path d="M1491.31 19.75L1473.04 -2.39384e-06L1509.57 1.93715e-07L1491.31 19.75Z" fill="#DB366E"/>
<path d="M1454.27 19.75L1435.51 -2.06144e-06L1473.04 5.96046e-07L1454.27 19.75Z" fill="#7A1487"/>
<path d="M1416.75 19.75L1397.99 -2.46378e-06L1435.51 1.93715e-07L1416.75 19.75Z" fill="#DB366E"/>
<path d="M1379.22 19.75L1360.46 -2.06144e-06L1397.99 5.96046e-07L1379.22 19.75Z" fill="#7A1487"/>
<path d="M1341.7 19.75L1322.94 -2.46378e-06L1360.46 1.93715e-07L1341.7 19.75Z" fill="#DB366E"/>
<path d="M1304.67 19.75L1286.4 -2.39384e-06L1322.94 1.93715e-07L1304.67 19.75Z" fill="#7A1487"/>
<path d="M1268.13 19.75L1249.86 -2.39384e-06L1286.4 1.93715e-07L1268.13 19.75Z" fill="#DB366E"/>
<path d="M1231.59 19.75L1213.32 -2.39384e-06L1249.86 1.93715e-07L1231.59 19.75Z" fill="#7A1487"/>
<path d="M1195.06 19.75L1176.79 -2.39384e-06L1213.32 1.93715e-07L1195.06 19.75Z" fill="#DB366E"/>
<path d="M1158.52 19.75L1140.25 -2.39384e-06L1176.79 1.93715e-07L1158.52 19.75Z" fill="#7A1487"/>
<path d="M1121.98 19.75L1103.71 -2.39384e-06L1140.25 1.93715e-07L1121.98 19.75Z" fill="#DB366E"/>
<path d="M1085.44 19.75L1067.17 -2.39384e-06L1103.71 1.93715e-07L1085.44 19.75Z" fill="#7A1487"/>
<path d="M1048.91 19.75L1030.64 -2.39384e-06L1067.17 1.93715e-07L1048.91 19.75Z" fill="#DB366E"/>
<path d="M1012.37 19.75L994.1 -2.39384e-06L1030.64 1.93715e-07L1012.37 19.75Z" fill="#7A1487"/>
<path d="M975.831 19.75L957.563 -2.39384e-06L994.1 1.93715e-07L975.831 19.75Z" fill="#DB366E"/>
<path d="M938.8 19.75L920.038 -2.46378e-06L957.563 1.93715e-07L938.8 19.75Z" fill="#7A1487"/>
<path d="M901.769 19.75L883.5 -2.39384e-06L920.038 1.93715e-07L901.769 19.75Z" fill="#DB366E"/>
<path d="M865.231 19.75L846.963 -2.39384e-06L883.5 1.93715e-07L865.231 19.75Z" fill="#7A1487"/>
<path d="M828.694 19.75L810.425 -2.39384e-06L846.962 1.93715e-07L828.694 19.75Z" fill="#DB366E"/>
<path d="M791.662 19.75L772.9 -2.46378e-06L810.425 1.93715e-07L791.662 19.75Z" fill="#7A1487"/>
<path d="M754.631 19.75L736.362 -2.39384e-06L772.9 1.93715e-07L754.631 19.75Z" fill="#DB366E"/>
<path d="M718.094 19.75L699.825 -2.39384e-06L736.362 1.93715e-07L718.094 19.75Z" fill="#7A1487"/>
<path d="M681.556 19.75L663.288 -2.39384e-06L699.825 1.93715e-07L681.556 19.75Z" fill="#DB366E"/>
<path d="M644.525 19.75L625.763 -2.46378e-06L663.288 1.93715e-07L644.525 19.75Z" fill="#7A1487"/>
<path d="M607.494 19.75L589.225 -2.39384e-06L625.763 1.93715e-07L607.494 19.75Z" fill="#DB366E"/>
<path d="M570.956 19.75L552.688 -2.39384e-06L589.225 1.93715e-07L570.956 19.75Z" fill="#7A1487"/>
<path d="M534.419 19.75L516.15 -2.39384e-06L552.688 1.93715e-07L534.419 19.75Z" fill="#DB366E"/>
<path d="M497.387 19.75L478.625 -2.46378e-06L516.15 1.93715e-07L497.387 19.75Z" fill="#7A1487"/>
<path d="M460.356 19.75L442.088 -2.39384e-06L478.625 1.93715e-07L460.356 19.75Z" fill="#DB366E"/>
<path d="M423.819 19.75L405.55 -2.39384e-06L442.087 1.93715e-07L423.819 19.75Z" fill="#7A1487"/>
<path d="M387.282 19.75L369.013 -2.39384e-06L405.55 1.93715e-07L387.282 19.75Z" fill="#DB366E"/>
<path d="M350.25 19.75L331.488 -2.46378e-06L369.013 1.93715e-07L350.25 19.75Z" fill="#7A1487"/>
<path d="M313.219 19.75L294.95 -2.39384e-06L331.488 1.93715e-07L313.219 19.75Z" fill="#DB366E"/>
<path d="M276.681 19.75L258.413 -2.39384e-06L294.95 1.93715e-07L276.681 19.75Z" fill="#7A1487"/>
<path d="M240.144 19.75L221.875 -2.39384e-06L258.413 1.93715e-07L240.144 19.75Z" fill="#DB366E"/>
<path d="M203.112 19.75L184.35 -2.46378e-06L221.875 1.93715e-07L203.112 19.75Z" fill="#7A1487"/>
<path d="M166.081 19.75L147.813 -2.39384e-06L184.35 1.93715e-07L166.081 19.75Z" fill="#DB366E"/>
<path d="M129.544 19.75L111.275 -2.39384e-06L147.813 1.93715e-07L129.544 19.75Z" fill="#7A1487"/>
<path d="M93.0066 19.75L74.7379 -2.39384e-06L111.275 1.93715e-07L93.0066 19.75Z" fill="#DB366E"/>
<path d="M56.469 19.75L38.2003 -2.39384e-06L74.7378 1.93715e-07L56.469 19.75Z" fill="#7A1487"/>
<path d="M19.4377 19.75L0.675198 -2.46378e-06L38.2002 1.93715e-07L19.4377 19.75Z" fill="#DB366E"/>
</svg>
