<svg width="20" height="1043" viewBox="0 0 20 1043" fill="none" xmlns="http://www.w3.org/2000/svg">
<path d="M20 18.5L9.93766e-07 37L1.99676e-06 -1.40969e-06L20 18.5Z" fill="#7A1487"/>
<path d="M20 55.5L9.93766e-07 74L1.99676e-06 37L20 55.5Z" fill="#DB366E"/>
<path d="M20 93L9.66658e-07 112L1.99676e-06 74L20 93Z" fill="#7A1487"/>
<path d="M20 130.5L9.93766e-07 149L1.99676e-06 112L20 130.5Z" fill="#DB366E"/>
<path d="M20 167.5L9.93766e-07 186L1.99676e-06 149L20 167.5Z" fill="#7A1487"/>
<path d="M20 204.5L9.93766e-07 223L1.99676e-06 186L20 204.5Z" fill="#DB366E"/>
<path d="M20 242L9.66658e-07 261L1.99676e-06 223L20 242Z" fill="#7A1487"/>
<path d="M20 279.5L9.93766e-07 298L1.99676e-06 261L20 279.5Z" fill="#DB366E"/>
<path d="M20 316.5L9.93766e-07 335L1.99676e-06 298L20 316.5Z" fill="#7A1487"/>
<path d="M20 353.5L9.93766e-07 372L1.99676e-06 335L20 353.5Z" fill="#DB366E"/>
<path d="M20 391L9.66658e-07 410L1.99676e-06 372L20 391Z" fill="#7A1487"/>
<path d="M20 428.5L9.93766e-07 447L1.99676e-06 410L20 428.5Z" fill="#DB366E"/>
<path d="M20 465.5L9.93766e-07 484L1.99676e-06 447L20 465.5Z" fill="#7A1487"/>
<path d="M20 502.5L9.93766e-07 521L1.99676e-06 484L20 502.5Z" fill="#DB366E"/>
<path d="M20 540L9.66658e-07 559L1.99676e-06 521L20 540Z" fill="#7A1487"/>
<path d="M20 577.5L9.93766e-07 596L1.99676e-06 559L20 577.5Z" fill="#DB366E"/>
<path d="M20 614.5L9.93766e-07 633L1.99676e-06 596L20 614.5Z" fill="#7A1487"/>
<path d="M20 651.5L9.93766e-07 670L1.99676e-06 633L20 651.5Z" fill="#DB366E"/>
<path d="M20 689L9.66658e-07 708L1.99676e-06 670L20 689Z" fill="#7A1487"/>
<path d="M20 726.5L9.93766e-07 745L1.99676e-06 708L20 726.5Z" fill="#DB366E"/>
<path d="M20 763.5L9.93766e-07 782L1.99676e-06 745L20 763.5Z" fill="#7A1487"/>
<path d="M20 800.5L9.93766e-07 819L1.99676e-06 782L20 800.5Z" fill="#DB366E"/>
<path d="M20 838L9.66658e-07 857L1.99676e-06 819L20 838Z" fill="#7A1487"/>
<path d="M20 875.5L9.93766e-07 894L1.99676e-06 857L20 875.5Z" fill="#DB366E"/>
<path d="M20 912.5L9.93766e-07 931L1.99676e-06 894L20 912.5Z" fill="#7A1487"/>
<path d="M20 949.5L9.93766e-07 968L1.99676e-06 931L20 949.5Z" fill="#DB366E"/>
<path d="M20 986.5L9.93766e-07 1005L1.99676e-06 968L20 986.5Z" fill="#7A1487"/>
<path d="M20 1024L9.66658e-07 1043L1.99676e-06 1005L20 1024Z" fill="#DB366E"/>
</svg>
