<svg width="126" height="71" viewBox="0 0 126 71" fill="none" xmlns="http://www.w3.org/2000/svg">
<path d="M8.26 29.28C8.00667 29.28 7.8 29.2133 7.64 29.08C7.49333 28.9467 7.41333 28.6667 7.4 28.24L7.12 9.6C7.10667 9.32 7.18 9.1 7.34 8.94C7.5 8.78 7.74667 8.7 8.08 8.7C8.38667 8.7 8.58667 8.75333 8.68 8.86C8.77333 8.96667 8.82 9.15333 8.82 9.42L9.02 26.28L18.74 9.5C18.9533 9.14 19.14 8.92 19.3 8.84C19.46 8.74667 19.7133 8.7 20.06 8.7C20.3667 8.7 20.5667 8.75333 20.66 8.86C20.7667 8.96667 20.82 9.15333 20.82 9.42L21 26.32L30.84 9.5C31.0533 9.15333 31.24 8.93333 31.4 8.84C31.56 8.74667 31.8067 8.7 32.14 8.7C32.4867 8.7 32.7067 8.80666 32.8 9.02C32.9067 9.22 32.8667 9.46 32.68 9.74L21.62 28.48C21.4333 28.7733 21.24 28.98 21.04 29.1C20.84 29.22 20.5733 29.28 20.24 29.28C19.9867 29.28 19.78 29.2067 19.62 29.06C19.4733 28.9267 19.3933 28.6533 19.38 28.24L19.16 12.12L9.62 28.48C9.44667 28.7733 9.25333 28.98 9.04 29.1C8.84 29.22 8.58 29.28 8.26 29.28ZM31.1077 29.34C30.521 29.34 30.081 29.2333 29.7877 29.02C29.5077 28.8067 29.3343 28.5333 29.2677 28.2C29.201 27.8533 29.201 27.4933 29.2677 27.12C29.3343 26.7333 29.421 26.3733 29.5277 26.04L31.7277 19.34C31.821 19.0733 31.9277 18.9 32.0477 18.82C32.181 18.74 32.3743 18.7 32.6277 18.7C33.041 18.7 33.301 18.7667 33.4077 18.9C33.5277 19.02 33.541 19.2133 33.4477 19.48L31.3077 26.02C31.0677 26.7267 30.9543 27.2067 30.9677 27.46C30.9943 27.7133 31.161 27.84 31.4677 27.84C31.6543 27.84 31.7943 27.92 31.8877 28.08C31.981 28.2267 32.0143 28.4 31.9877 28.6C31.9743 28.7867 31.8943 28.9533 31.7477 29.1C31.601 29.26 31.3877 29.34 31.1077 29.34ZM33.8677 15.62C33.601 15.62 33.3743 15.5333 33.1877 15.36C33.001 15.1867 32.9077 14.9333 32.9077 14.6C32.9077 14.24 33.021 13.9 33.2477 13.58C33.4877 13.26 33.8543 13.1 34.3477 13.1C34.6277 13.1 34.861 13.1867 35.0477 13.36C35.2343 13.52 35.3277 13.7733 35.3277 14.12C35.3277 14.48 35.2077 14.82 34.9677 15.14C34.741 15.46 34.3743 15.62 33.8677 15.62ZM31.0037 29.34C30.8171 29.34 30.6771 29.26 30.5837 29.1C30.4904 28.9533 30.4571 28.7867 30.4837 28.6C30.4971 28.4 30.5771 28.2267 30.7237 28.08C30.8704 27.92 31.0837 27.84 31.3637 27.84C31.6837 27.84 32.0571 27.7133 32.4837 27.46C32.9104 27.2067 33.4037 26.8 33.9637 26.24C34.5104 25.6667 35.1304 24.9133 35.8238 23.98C36.5304 23.0333 37.3104 21.8733 38.1638 20.5C38.2838 20.3133 38.4371 20.2333 38.6238 20.26C38.8238 20.2867 38.9771 20.3733 39.0838 20.52C39.2038 20.6667 39.2104 20.8267 39.1038 21C38.1038 22.68 37.2171 24.06 36.4438 25.14C35.6704 26.22 34.9704 27.0667 34.3438 27.68C33.7171 28.2933 33.1371 28.7267 32.6037 28.98C32.0571 29.22 31.5237 29.34 31.0037 29.34ZM38.6638 29.34C38.0371 29.34 37.5238 29.2 37.1238 28.92C36.7371 28.6267 36.4571 28.2467 36.2838 27.78C36.1104 27.3 36.0371 26.7667 36.0638 26.18C36.0904 25.5933 36.2038 25 36.4038 24.4L37.6638 20.6H36.1438C35.9971 20.6 35.8971 20.5333 35.8438 20.4C35.7904 20.2667 35.7971 20.0667 35.8638 19.8C35.9438 19.5333 36.0504 19.3333 36.1838 19.2C36.3171 19.0667 36.4571 19 36.6038 19H38.2038L39.5038 15.04C39.5838 14.7733 39.6837 14.6 39.8038 14.52C39.9371 14.44 40.1371 14.4 40.4038 14.4C40.8304 14.4 41.0971 14.4667 41.2038 14.6C41.3104 14.72 41.3171 14.9133 41.2238 15.18L39.9438 19H42.4638C42.6104 19 42.7104 19.0667 42.7638 19.2C42.8304 19.32 42.8238 19.52 42.7438 19.8C42.6771 20.0533 42.5771 20.2533 42.4438 20.4C42.3104 20.5333 42.1704 20.6 42.0238 20.6H39.4238L38.1038 24.58C37.9171 25.14 37.8104 25.6267 37.7838 26.04C37.7704 26.4533 37.8104 26.7933 37.9038 27.06C38.0104 27.3267 38.1638 27.5267 38.3638 27.66C38.5638 27.78 38.7904 27.84 39.0438 27.84C39.2304 27.84 39.3704 27.92 39.4638 28.08C39.5571 28.2267 39.5904 28.4 39.5638 28.6C39.5371 28.7867 39.4504 28.9533 39.3038 29.1C39.1571 29.26 38.9438 29.34 38.6638 29.34ZM38.7381 29.34C38.5515 29.34 38.4115 29.26 38.3181 29.1C38.2248 28.9533 38.1915 28.7867 38.2181 28.6C38.2315 28.4 38.3115 28.2267 38.4581 28.08C38.6048 27.92 38.8181 27.84 39.0981 27.84C39.4448 27.84 39.8248 27.6667 40.2381 27.32C40.6381 26.96 41.1181 26.4067 41.6781 25.66C42.2381 24.9 42.9048 23.92 43.6781 22.72C44.4648 21.5067 45.3981 20.04 46.4781 18.32C46.5981 18.1333 46.7515 18.0533 46.9381 18.08C47.1248 18.1067 47.2715 18.1933 47.3781 18.34C47.4981 18.4867 47.5048 18.6467 47.3981 18.82C46.1981 20.8733 45.1715 22.58 44.3181 23.94C43.4781 25.2867 42.7448 26.36 42.1181 27.16C41.4915 27.9467 40.9115 28.5067 40.3781 28.84C39.8448 29.1733 39.2981 29.34 38.7381 29.34ZM51.8777 29.3C51.3577 29.3 50.9777 29.1933 50.7377 28.98C50.511 28.7533 50.3777 28.4733 50.3377 28.14C50.2977 27.8067 50.3177 27.4533 50.3977 27.08C50.4777 26.7067 50.571 26.36 50.6777 26.04L52.0177 22.12C52.2043 21.6133 52.2777 21.1733 52.2377 20.8C52.1977 20.4133 51.9377 20.22 51.4577 20.22C51.0043 20.22 50.5043 20.4133 49.9577 20.8C49.4243 21.1867 48.8643 21.7333 48.2777 22.44C47.7043 23.1467 47.1377 23.9867 46.5777 24.96C46.0177 25.92 45.4977 26.98 45.0177 28.14L44.8177 28.78C44.7643 28.9533 44.671 29.08 44.5377 29.16C44.4043 29.2533 44.1843 29.3 43.8777 29.3C43.6643 29.3 43.4643 29.2533 43.2777 29.16C43.091 29.0667 43.0377 28.8933 43.1177 28.64L49.3777 9.34C49.4577 9.07333 49.5577 8.9 49.6777 8.82C49.811 8.74 50.011 8.7 50.2777 8.7C50.691 8.7 50.951 8.76667 51.0577 8.9C51.1777 9.02 51.191 9.21333 51.0977 9.48L46.8177 22.62C47.231 21.98 47.651 21.4133 48.0777 20.92C48.5177 20.4267 48.9577 20.0133 49.3977 19.68C49.8377 19.3333 50.2843 19.0733 50.7377 18.9C51.191 18.7133 51.6443 18.62 52.0977 18.62C52.6977 18.62 53.1577 18.7733 53.4777 19.08C53.811 19.3733 53.9977 19.8133 54.0377 20.4C54.0777 20.9867 53.951 21.7133 53.6577 22.58L52.1577 26.92C52.0777 27.1733 52.031 27.36 52.0177 27.48C52.0177 27.6 52.0443 27.68 52.0977 27.72C52.151 27.76 52.211 27.78 52.2777 27.78C52.411 27.78 52.5443 27.7333 52.6777 27.64C52.8243 27.5467 52.9777 27.42 53.1377 27.26C53.311 27.0867 53.491 26.8933 53.6777 26.68C53.7843 26.5467 53.891 26.4733 53.9977 26.46C54.1043 26.4333 54.231 26.4733 54.3777 26.58C54.591 26.7133 54.7177 26.8467 54.7577 26.98C54.811 27.1133 54.7977 27.2467 54.7177 27.38C54.5977 27.58 54.4043 27.8333 54.1377 28.14C53.8843 28.4467 53.5643 28.72 53.1777 28.96C52.791 29.1867 52.3577 29.3 51.8777 29.3ZM64.4294 29.34C63.8427 29.34 63.4027 29.2333 63.1094 29.02C62.8294 28.8067 62.656 28.5333 62.5894 28.2C62.5227 27.8533 62.5227 27.4933 62.5894 27.12C62.656 26.7333 62.7427 26.3733 62.8494 26.04L68.3694 9.34C68.4627 9.07333 68.5694 8.9 68.6894 8.82C68.8227 8.74 69.016 8.7 69.2694 8.7C69.6827 8.7 69.9427 8.76667 70.0494 8.9C70.1694 9.02 70.1827 9.21333 70.0894 9.48L64.6294 26.02C64.3894 26.7267 64.276 27.2067 64.2894 27.46C64.316 27.7133 64.4827 27.84 64.7894 27.84C64.976 27.84 65.116 27.92 65.2094 28.08C65.3027 28.2267 65.336 28.4 65.3094 28.6C65.296 28.7867 65.216 28.9533 65.0694 29.1C64.9227 29.26 64.7094 29.34 64.4294 29.34ZM64.3045 29.34C64.1179 29.34 63.9779 29.26 63.8845 29.1C63.7912 28.9533 63.7579 28.7867 63.7845 28.6C63.7979 28.4 63.8779 28.2267 64.0245 28.08C64.1712 27.92 64.3845 27.84 64.6645 27.84C65.0112 27.84 65.3779 27.7133 65.7645 27.46C66.1512 27.2067 66.5512 26.8533 66.9645 26.4C67.3645 25.9467 67.7779 25.4133 68.2045 24.8C68.6312 24.1867 69.0645 23.52 69.5045 22.8C69.6112 22.6267 69.7579 22.5533 69.9445 22.58C70.1312 22.6067 70.2845 22.6933 70.4045 22.84C70.5245 22.9733 70.5312 23.1267 70.4245 23.3C69.8512 24.3 69.3045 25.18 68.7845 25.94C68.2779 26.7 67.7845 27.3333 67.3045 27.84C66.8112 28.3333 66.3245 28.7067 65.8445 28.96C65.3512 29.2133 64.8379 29.34 64.3045 29.34ZM72.7245 29.38C71.8979 29.38 71.1979 29.2133 70.6245 28.88C70.0512 28.5467 69.6179 28.0867 69.3245 27.5C69.0445 26.9 68.9045 26.2267 68.9045 25.48C68.9045 24.7733 69.0312 24.0267 69.2845 23.24C69.5379 22.44 69.9112 21.6933 70.4045 21C70.9112 20.2933 71.5379 19.72 72.2845 19.28C73.0445 18.84 73.9245 18.62 74.9245 18.62C75.7512 18.62 76.4445 18.78 77.0045 19.1C77.5779 19.4067 78.0045 19.8467 78.2845 20.42C78.5779 20.98 78.7245 21.6333 78.7245 22.38C78.7245 22.9133 78.6445 23.5 78.4845 24.14C78.3379 24.7667 78.1045 25.3933 77.7845 26.02C77.4779 26.6333 77.0845 27.1933 76.6045 27.7C76.1245 28.2067 75.5579 28.6133 74.9045 28.92C74.2645 29.2267 73.5379 29.38 72.7245 29.38ZM72.9245 27.78C73.5779 27.78 74.1512 27.6067 74.6445 27.26C75.1379 26.9133 75.5512 26.4733 75.8845 25.94C76.2179 25.3933 76.4712 24.8267 76.6445 24.24C76.8179 23.64 76.9045 23.0867 76.9045 22.58C76.9045 22.06 76.8179 21.6267 76.6445 21.28C76.4712 20.9333 76.2245 20.6733 75.9045 20.5C75.5845 20.3133 75.2045 20.22 74.7645 20.22C74.0979 20.22 73.5112 20.3933 73.0045 20.74C72.4979 21.0733 72.0712 21.5067 71.7245 22.04C71.3912 22.5733 71.1379 23.1333 70.9645 23.72C70.7912 24.3067 70.7045 24.8467 70.7045 25.34C70.7045 25.86 70.7912 26.3067 70.9645 26.68C71.1512 27.04 71.4112 27.3133 71.7445 27.5C72.0779 27.6867 72.4712 27.78 72.9245 27.78ZM79.5558 21.02C79.0758 21.02 78.6024 20.9467 78.1358 20.8C77.6558 20.64 77.1558 20.42 76.6358 20.14C76.3158 19.9667 76.1624 19.78 76.1758 19.58C76.1758 19.38 76.2758 19.2267 76.4758 19.12C76.6624 19 76.8624 19 77.0758 19.12C77.3558 19.2667 77.7224 19.3933 78.1758 19.5C78.6158 19.5933 79.0691 19.64 79.5358 19.64C79.9624 19.64 80.3824 19.5867 80.7958 19.48C81.2091 19.3733 81.5558 19.1933 81.8358 18.94C81.9558 18.8333 82.0824 18.7933 82.2158 18.82C82.3491 18.8333 82.4558 18.8933 82.5358 19C82.6291 19.1067 82.6758 19.2333 82.6758 19.38C82.6758 19.5267 82.6024 19.6733 82.4558 19.82C82.0024 20.2733 81.5291 20.5867 81.0358 20.76C80.5424 20.9333 80.0491 21.02 79.5558 21.02ZM83.0163 29.3C82.7229 29.3 82.5229 29.2467 82.4163 29.14C82.3229 29.0467 82.2696 28.9 82.2563 28.7L81.5563 19.64C81.5429 19.3333 81.6096 19.1 81.7563 18.94C81.9163 18.78 82.1229 18.7 82.3763 18.7C82.6029 18.7 82.7896 18.74 82.9363 18.82C83.0829 18.9 83.1629 19.0867 83.1763 19.38L83.7163 26.8L89.0763 19.24C89.2496 19.0133 89.4029 18.8667 89.5363 18.8C89.6829 18.7333 89.8496 18.7 90.0363 18.7C90.4096 18.7 90.6696 18.8 90.8163 19C90.9629 19.2 90.9429 19.4133 90.7563 19.64L84.1163 28.78C83.9829 28.94 83.8363 29.0667 83.6763 29.16C83.5163 29.2533 83.2963 29.3 83.0163 29.3ZM92.112 24.88C91.6587 24.76 91.2654 24.5667 90.932 24.3C90.612 24.0333 90.3454 23.6867 90.132 23.26C89.932 22.82 89.7854 22.3 89.692 21.7C89.5987 21.0867 89.552 20.3933 89.552 19.62C89.552 19.3667 89.6187 19.1867 89.752 19.08C89.8854 18.96 90.0387 18.8933 90.212 18.88C90.3987 18.8667 90.5587 18.8933 90.692 18.96C90.8254 19.0133 90.892 19.0933 90.892 19.2C90.892 19.9733 90.9254 20.6333 90.992 21.18C91.0587 21.7133 91.1587 22.1467 91.292 22.48C91.4387 22.8 91.6187 23.0467 91.832 23.22C92.0587 23.3933 92.3187 23.5133 92.612 23.58C92.7454 23.6067 92.8187 23.6933 92.832 23.84C92.8454 23.9867 92.8187 24.1467 92.752 24.32C92.6854 24.4933 92.592 24.64 92.472 24.76C92.3654 24.8667 92.2454 24.9067 92.112 24.88ZM94.352 29.34C93.5387 29.34 92.872 29.1667 92.352 28.82C91.832 28.46 91.4454 27.98 91.192 27.38C90.952 26.7667 90.832 26.08 90.832 25.32C90.832 24.6533 90.952 23.9333 91.192 23.16C91.4454 22.3867 91.8054 21.66 92.272 20.98C92.7387 20.2867 93.312 19.72 93.992 19.28C94.672 18.84 95.4454 18.62 96.312 18.62C96.8187 18.62 97.252 18.7067 97.612 18.88C97.972 19.0533 98.2454 19.3 98.432 19.62C98.632 19.94 98.732 20.3267 98.732 20.78C98.732 21.4333 98.512 22.0267 98.072 22.56C97.632 23.0933 97.0587 23.5533 96.352 23.94C95.6454 24.3133 94.8854 24.5867 94.072 24.76C93.2587 24.9333 92.4787 24.9933 91.732 24.94L91.912 23.52C92.352 23.5733 92.8587 23.56 93.432 23.48C94.0054 23.3867 94.552 23.2333 95.072 23.02C95.6054 22.8067 96.0454 22.5333 96.392 22.2C96.7387 21.8533 96.912 21.4533 96.912 21C96.912 20.6933 96.8254 20.4867 96.652 20.38C96.492 20.26 96.2854 20.2 96.032 20.2C95.512 20.2 95.0387 20.3733 94.612 20.72C94.1987 21.0533 93.8454 21.4867 93.552 22.02C93.2587 22.54 93.032 23.0867 92.872 23.66C92.712 24.2333 92.632 24.7467 92.632 25.2C92.632 25.5867 92.6654 25.94 92.732 26.26C92.812 26.5667 92.932 26.8333 93.092 27.06C93.252 27.2733 93.452 27.44 93.692 27.56C93.9454 27.68 94.2454 27.74 94.592 27.74C95.032 27.74 95.432 27.6533 95.792 27.48C96.1654 27.2933 96.512 27.0533 96.832 26.76C97.1654 26.4533 97.492 26.1267 97.812 25.78C97.972 25.5933 98.1587 25.5267 98.372 25.58C98.5854 25.6333 98.7587 25.7333 98.892 25.88C99.0254 26.0267 99.0987 26.18 99.112 26.34C99.1387 26.5 99.072 26.68 98.912 26.88C98.4054 27.52 97.892 28.02 97.372 28.38C96.8654 28.7267 96.3587 28.9733 95.852 29.12C95.3454 29.2667 94.8454 29.34 94.352 29.34ZM101.198 29.68C100.811 29.68 100.524 29.5867 100.338 29.4C100.151 29.2133 100.058 28.9533 100.058 28.62C100.058 28.1267 100.164 27.7467 100.378 27.48C100.604 27.2133 100.944 27.08 101.398 27.08C101.798 27.08 102.091 27.1733 102.278 27.36C102.478 27.5467 102.578 27.8 102.578 28.12C102.578 28.6133 102.464 28.9933 102.238 29.26C102.011 29.54 101.664 29.68 101.198 29.68Z" fill="#DB366E"/>
<path d="M1.7 60.28C1.35333 60.28 1.12667 60.18 1.02 59.98C0.913333 59.7667 0.96 59.5133 1.16 59.22L13.56 40.5C13.7467 40.1933 13.94 39.9867 14.14 39.88C14.34 39.76 14.6 39.7 14.92 39.7C15.1733 39.7 15.3733 39.7667 15.52 39.9C15.68 40.02 15.7667 40.2933 15.78 40.72L16.66 59.38C16.6867 59.6467 16.62 59.86 16.46 60.02C16.3133 60.1933 16.0667 60.28 15.72 60.28C15.4267 60.28 15.2333 60.22 15.14 60.1C15.0467 59.9933 14.9867 59.8067 14.96 59.54L14.72 54.3H6.4L3 59.48C2.76 59.8267 2.56667 60.0467 2.42 60.14C2.28667 60.2333 2.04667 60.28 1.7 60.28ZM7.5 52.7H14.66L14.18 42.52L7.5 52.7ZM19.9202 60.3C19.7068 60.3 19.5002 60.2533 19.3002 60.16C19.1135 60.0667 19.0668 59.8933 19.1602 59.64L25.4402 40.34C25.5202 40.0733 25.6202 39.9 25.7402 39.82C25.8735 39.74 26.0735 39.7 26.3402 39.7C26.7535 39.7 27.0135 39.7667 27.1202 39.9C27.2402 40.02 27.2535 40.2133 27.1602 40.48L23.0802 52.94C23.6268 52.1933 24.1602 51.5733 24.6802 51.08C25.2135 50.5867 25.7268 50.22 26.2202 49.98C26.7135 49.74 27.1935 49.62 27.6602 49.62C28.3402 49.62 28.8868 49.8867 29.3002 50.42C29.7135 50.94 29.9202 51.66 29.9202 52.58C29.9202 53.1933 29.8202 53.8533 29.6202 54.56C29.4335 55.2533 29.1535 55.94 28.7802 56.62C28.4068 57.3 27.9535 57.92 27.4202 58.48C26.8868 59.04 26.2802 59.4933 25.6002 59.84C24.9335 60.1733 24.1935 60.34 23.3802 60.34C22.9668 60.34 22.5468 60.28 22.1202 60.16C21.6935 60.04 21.2802 59.88 20.8802 59.68L20.8602 59.78C20.8068 59.9533 20.7135 60.08 20.5802 60.16C20.4468 60.2533 20.2268 60.3 19.9202 60.3ZM21.3402 58.32C21.7668 58.4933 22.1602 58.6133 22.5202 58.68C22.8935 58.7467 23.2468 58.78 23.5802 58.78C24.1402 58.78 24.6535 58.6467 25.1202 58.38C25.5868 58.1133 26.0002 57.76 26.3602 57.32C26.7335 56.88 27.0468 56.4 27.3002 55.88C27.5535 55.3467 27.7468 54.82 27.8802 54.3C28.0135 53.78 28.0802 53.3133 28.0802 52.9C28.0802 52.5533 28.0402 52.26 27.9602 52.02C27.8802 51.7667 27.7668 51.5733 27.6202 51.44C27.4735 51.2933 27.2935 51.22 27.0802 51.22C26.6002 51.22 26.0735 51.4533 25.5002 51.92C24.9268 52.3733 24.3202 53.0467 23.6802 53.94C23.0402 54.8333 22.3735 55.9333 21.6802 57.24L21.3402 58.32ZM33.5733 60.34C33.1199 60.34 32.7199 60.22 32.3733 59.98C32.0399 59.74 31.7799 59.4 31.5933 58.96C31.4066 58.52 31.3133 58 31.3133 57.4C31.3133 56.7867 31.4066 56.1267 31.5933 55.42C31.7799 54.7133 32.0599 54.02 32.4333 53.34C32.8066 52.66 33.2599 52.04 33.7933 51.48C34.3399 50.92 34.9599 50.4733 35.6533 50.14C36.3466 49.7933 37.1199 49.62 37.9733 49.62C38.3599 49.62 38.7733 49.6733 39.2133 49.78C39.6533 49.8867 40.0799 50.04 40.4933 50.24L43.7933 40.34C43.8733 40.0733 43.9733 39.9 44.0933 39.82C44.2266 39.74 44.4266 39.7 44.6933 39.7C45.1066 39.7 45.3666 39.7667 45.4733 39.9C45.5933 40.02 45.6066 40.2133 45.5133 40.48L40.0133 57.02C39.7999 57.7133 39.7133 58.1933 39.7533 58.46C39.7933 58.7133 40.0199 58.84 40.4333 58.84C40.5533 58.84 40.6399 58.92 40.6933 59.08C40.7599 59.2267 40.7799 59.4 40.7533 59.6C40.7399 59.7867 40.6799 59.9533 40.5733 60.1C40.4666 60.26 40.3066 60.34 40.0933 60.34C39.4399 60.34 38.9533 60.2267 38.6333 60C38.3133 59.7867 38.1066 59.5133 38.0133 59.18C37.9333 58.8333 37.9199 58.4733 37.9733 58.1C38.0399 57.7133 38.1266 57.36 38.2333 57.04L38.2733 56.9C37.7133 57.6733 37.1533 58.3133 36.5933 58.82C36.0466 59.3267 35.5199 59.7067 35.0133 59.96C34.5066 60.2133 34.0266 60.34 33.5733 60.34ZM34.1333 58.74C34.5999 58.74 35.1266 58.5067 35.7133 58.04C36.3133 57.56 36.9533 56.86 37.6333 55.94C38.3266 55.02 39.0199 53.9067 39.7133 52.6L40.0333 51.66C39.5666 51.4733 39.1399 51.3533 38.7533 51.3C38.3666 51.2333 38.0133 51.2 37.6933 51.2C37.1199 51.2 36.5933 51.3333 36.1133 51.6C35.6333 51.8667 35.2066 52.22 34.8333 52.66C34.4733 53.0867 34.1666 53.5667 33.9133 54.1C33.6599 54.62 33.4666 55.14 33.3333 55.66C33.1999 56.18 33.1333 56.6533 33.1333 57.08C33.1333 57.4133 33.1733 57.7067 33.2533 57.96C33.3333 58.2133 33.4466 58.4067 33.5933 58.54C33.7533 58.6733 33.9333 58.74 34.1333 58.74ZM40.0858 60.34C39.8991 60.34 39.7591 60.26 39.6658 60.1C39.5724 59.9533 39.5391 59.7867 39.5658 59.6C39.5791 59.4 39.6591 59.2267 39.8058 59.08C39.9524 58.92 40.1658 58.84 40.4458 58.84C40.7658 58.84 41.1324 58.68 41.5458 58.36C41.9458 58.04 42.4191 57.54 42.9658 56.86C43.5124 56.1667 44.1591 55.2667 44.9058 54.16C45.6524 53.04 46.5258 51.6867 47.5258 50.1C47.6458 49.9133 47.7991 49.8333 47.9858 49.86C48.1858 49.8867 48.3458 49.9733 48.4658 50.12C48.5858 50.2667 48.5924 50.4267 48.4858 50.6C47.3524 52.52 46.3724 54.1133 45.5458 55.38C44.7324 56.6333 44.0191 57.6267 43.4058 58.36C42.7924 59.08 42.2258 59.5933 41.7058 59.9C41.1724 60.1933 40.6324 60.34 40.0858 60.34ZM46.9058 60.3C46.2924 60.3 45.8124 60.1533 45.4658 59.86C45.1324 59.5533 44.9524 59.1067 44.9258 58.52C44.8991 57.92 45.0258 57.1933 45.3058 56.34L47.3058 50.34C47.3991 50.0733 47.5058 49.9 47.6258 49.82C47.7591 49.74 47.9524 49.7 48.2058 49.7C48.6191 49.7 48.8791 49.7667 48.9858 49.9C49.1058 50.02 49.1191 50.2133 49.0258 50.48L46.9058 56.8C46.7858 57.1333 46.7058 57.4467 46.6658 57.74C46.6391 58.0333 46.6858 58.2667 46.8058 58.44C46.9391 58.6133 47.1858 58.7 47.5458 58.7C48.0124 58.7 48.5191 58.5 49.0658 58.1C49.6124 57.7 50.1724 57.14 50.7458 56.42C51.3324 55.7 51.9058 54.8533 52.4658 53.88C53.0258 52.8933 53.5458 51.8133 54.0258 50.64L54.1258 50.34C54.2191 50.0733 54.3258 49.9 54.4458 49.82C54.5791 49.74 54.7724 49.7 55.0258 49.7C55.4391 49.7 55.6991 49.7667 55.8058 49.9C55.9258 50.02 55.9391 50.2133 55.8458 50.48L53.6858 57.02C53.4591 57.7133 53.3524 58.1933 53.3658 58.46C53.3791 58.7133 53.5391 58.84 53.8458 58.84C54.0324 58.84 54.1724 58.92 54.2658 59.08C54.3591 59.2267 54.3924 59.4 54.3658 59.6C54.3524 59.7867 54.2724 59.9533 54.1258 60.1C53.9791 60.26 53.7658 60.34 53.4858 60.34C52.8991 60.34 52.4591 60.2267 52.1658 60C51.8858 59.7867 51.7124 59.5133 51.6458 59.18C51.5791 58.8333 51.5791 58.4733 51.6458 58.1C51.7124 57.7133 51.7991 57.36 51.9058 57.04L52.1258 56.4C51.7258 57.0267 51.3124 57.58 50.8858 58.06C50.4591 58.54 50.0191 58.9467 49.5658 59.28C49.1258 59.6133 48.6791 59.8667 48.2258 60.04C47.7858 60.2133 47.3458 60.3 46.9058 60.3ZM53.4842 60.34C53.2976 60.34 53.1576 60.26 53.0642 60.1C52.9709 59.9533 52.9376 59.7867 52.9642 59.6C52.9776 59.4 53.0576 59.2267 53.2042 59.08C53.3509 58.92 53.5642 58.84 53.8442 58.84C54.1909 58.84 54.5709 58.6667 54.9842 58.32C55.3842 57.96 55.8642 57.4067 56.4242 56.66C56.9842 55.9 57.6509 54.92 58.4242 53.72C59.2109 52.5067 60.1442 51.04 61.2242 49.32C61.3442 49.1333 61.4976 49.0533 61.6842 49.08C61.8709 49.1067 62.0176 49.1933 62.1242 49.34C62.2442 49.4867 62.2509 49.6467 62.1442 49.82C60.9442 51.8733 59.9176 53.58 59.0642 54.94C58.2242 56.2867 57.4909 57.36 56.8642 58.16C56.2376 58.9467 55.6576 59.5067 55.1242 59.84C54.5909 60.1733 54.0442 60.34 53.4842 60.34ZM60.1038 60.34C59.5171 60.34 59.0771 60.2333 58.7838 60.02C58.5038 59.8067 58.3304 59.5333 58.2638 59.2C58.1971 58.8533 58.1971 58.4933 58.2638 58.12C58.3304 57.7333 58.4171 57.3733 58.5238 57.04L64.0438 40.34C64.1371 40.0733 64.2438 39.9 64.3638 39.82C64.4971 39.74 64.6904 39.7 64.9438 39.7C65.3571 39.7 65.6171 39.7667 65.7238 39.9C65.8438 40.02 65.8571 40.2133 65.7638 40.48L60.3038 57.02C60.0638 57.7267 59.9504 58.2067 59.9638 58.46C59.9904 58.7133 60.1571 58.84 60.4638 58.84C60.6504 58.84 60.7904 58.92 60.8838 59.08C60.9771 59.2267 61.0104 59.4 60.9838 59.6C60.9704 59.7867 60.8904 59.9533 60.7438 60.1C60.5971 60.26 60.3838 60.34 60.1038 60.34ZM59.9881 60.34C59.8015 60.34 59.6615 60.26 59.5681 60.1C59.4748 59.9533 59.4415 59.7867 59.4681 59.6C59.4815 59.4 59.5615 59.2267 59.7081 59.08C59.8548 58.92 60.0681 58.84 60.3481 58.84C60.6948 58.84 61.0615 58.7133 61.4481 58.46C61.8348 58.2067 62.2348 57.8533 62.6481 57.4C63.0481 56.9467 63.4615 56.4133 63.8881 55.8C64.3148 55.1867 64.7481 54.52 65.1881 53.8C65.2948 53.6267 65.4415 53.5533 65.6281 53.58C65.8148 53.6067 65.9681 53.6933 66.0881 53.84C66.2081 53.9733 66.2148 54.1267 66.1081 54.3C65.5348 55.3 64.9881 56.18 64.4681 56.94C63.9615 57.7 63.4681 58.3333 62.9881 58.84C62.4948 59.3333 62.0081 59.7067 61.5281 59.96C61.0348 60.2133 60.5215 60.34 59.9881 60.34ZM68.8281 69.98C68.6948 70.14 68.5148 70.2067 68.2881 70.18C68.0748 70.1533 67.9081 70.0667 67.7881 69.92C67.6815 69.7733 67.7081 69.6067 67.8681 69.42C68.2148 68.9533 68.6148 68.4533 69.0681 67.92C69.5215 67.4 70.0215 66.8733 70.5681 66.34C71.1148 65.8067 71.7015 65.2933 72.3281 64.8C72.4481 64.6933 72.5681 64.66 72.6881 64.7C72.8215 64.7533 72.9348 64.86 73.0281 65.02C73.1348 65.1533 73.1748 65.2867 73.1481 65.42C73.1348 65.5667 73.0615 65.6867 72.9281 65.78C72.4881 66.1267 72.0148 66.54 71.5081 67.02C71.0148 67.5 70.5348 67.9933 70.0681 68.5C69.6148 69.02 69.2015 69.5133 68.8281 69.98ZM66.5481 60.34C66.0948 60.34 65.6948 60.22 65.3481 59.98C65.0148 59.74 64.7548 59.4 64.5681 58.96C64.3815 58.52 64.2881 58 64.2881 57.4C64.2881 56.7867 64.3815 56.1267 64.5681 55.42C64.7548 54.7133 65.0348 54.02 65.4081 53.34C65.7815 52.66 66.2348 52.04 66.7681 51.48C67.3148 50.92 67.9348 50.4733 68.6281 50.14C69.3215 49.7933 70.0948 49.62 70.9481 49.62C71.3348 49.62 71.7481 49.6733 72.1881 49.78C72.6281 49.8867 73.0548 50.04 73.4681 50.24L73.4881 50.18C73.5415 50.0067 73.6348 49.8867 73.7681 49.82C73.9015 49.74 74.0948 49.7 74.3481 49.7C74.7615 49.7 75.0215 49.7667 75.1281 49.9C75.2481 50.02 75.2615 50.2133 75.1681 50.48L68.8881 69.78C68.8348 69.9533 68.7415 70.08 68.6081 70.16C68.4748 70.2533 68.2548 70.3 67.9481 70.3C67.7348 70.3 67.5348 70.2533 67.3481 70.16C67.1615 70.0667 67.1081 69.8933 67.1881 69.64L71.3881 56.74C70.8015 57.54 70.2215 58.2133 69.6481 58.76C69.0881 59.2933 68.5481 59.6933 68.0281 59.96C67.5081 60.2133 67.0148 60.34 66.5481 60.34ZM66.1081 57.08C66.1081 57.4133 66.1481 57.7067 66.2281 57.96C66.3081 58.2133 66.4215 58.4067 66.5681 58.54C66.7281 58.6733 66.9081 58.74 67.1081 58.74C67.5748 58.74 68.1148 58.5 68.7281 58.02C69.3415 57.5267 69.9881 56.8133 70.6681 55.88C71.3615 54.9333 72.0615 53.78 72.7681 52.42L73.0081 51.64C72.5548 51.4533 72.1281 51.3333 71.7281 51.28C71.3415 51.2267 70.9881 51.2 70.6681 51.2C70.0948 51.2 69.5681 51.3333 69.0881 51.6C68.6081 51.8667 68.1815 52.22 67.8081 52.66C67.4481 53.0867 67.1415 53.5667 66.8881 54.1C66.6348 54.62 66.4415 55.14 66.3081 55.66C66.1748 56.18 66.1081 56.6533 66.1081 57.08ZM78.9891 60.34C78.5357 60.34 78.1424 60.22 77.8091 59.98C77.4757 59.74 77.2157 59.4 77.0291 58.96C76.8424 58.52 76.7491 58 76.7491 57.4C76.7491 56.7867 76.8424 56.1267 77.0291 55.42C77.2157 54.7133 77.4957 54.02 77.8691 53.34C78.2424 52.66 78.6957 52.04 79.2291 51.48C79.7624 50.92 80.3757 50.4733 81.0691 50.14C81.7757 49.7933 82.5491 49.62 83.3891 49.62C83.8957 49.62 84.4424 49.7133 85.0291 49.9C85.6157 50.0733 86.1424 50.32 86.6091 50.64L86.2491 52.02C85.5957 51.6733 85.0157 51.4533 84.5091 51.36C84.0024 51.2533 83.5357 51.2 83.1091 51.2C82.5357 51.2 82.0091 51.3333 81.5291 51.6C81.0624 51.8667 80.6424 52.22 80.2691 52.66C79.9091 53.0867 79.6024 53.5667 79.3491 54.1C79.0957 54.62 78.9024 55.14 78.7691 55.66C78.6357 56.18 78.5691 56.6533 78.5691 57.08C78.5691 57.4133 78.6091 57.7067 78.6891 57.96C78.7691 58.2133 78.8824 58.4067 79.0291 58.54C79.1891 58.6733 79.3691 58.74 79.5691 58.74C80.0624 58.74 80.6224 58.4733 81.2491 57.94C81.8757 57.3933 82.5424 56.5933 83.2491 55.54C83.9691 54.4867 84.7024 53.2067 85.4491 51.7L86.1891 52.44C85.3224 54.2267 84.4624 55.7067 83.6091 56.88C82.7691 58.04 81.9624 58.9067 81.1891 59.48C80.4157 60.0533 79.6824 60.34 78.9891 60.34ZM85.1491 60.34C84.5491 60.34 84.1024 60.2267 83.8091 60C83.5291 59.7867 83.3491 59.5133 83.2691 59.18C83.2024 58.8333 83.2024 58.4733 83.2691 58.1C83.3357 57.7133 83.4291 57.36 83.5491 57.04L85.7891 50.34C85.8824 50.0733 85.9891 49.9 86.1091 49.82C86.2424 49.74 86.4357 49.7 86.6891 49.7C87.1024 49.7 87.3624 49.7667 87.4691 49.9C87.5891 50.02 87.6024 50.2133 87.5091 50.48L85.3091 57.02C85.0824 57.7133 84.9757 58.1933 84.9891 58.46C85.0157 58.7133 85.1824 58.84 85.4891 58.84C85.6757 58.84 85.8157 58.92 85.9091 59.08C86.0024 59.2267 86.0357 59.4 86.0091 59.6C85.9957 59.7867 85.9157 59.9533 85.7691 60.1C85.6357 60.26 85.4291 60.34 85.1491 60.34ZM85.1444 60.34C84.9577 60.34 84.8177 60.26 84.7244 60.1C84.631 59.9533 84.5977 59.7867 84.6244 59.6C84.6377 59.4 84.7177 59.2267 84.8644 59.08C85.011 58.92 85.2244 58.84 85.5044 58.84C85.851 58.84 86.231 58.6667 86.6444 58.32C87.0444 57.96 87.5244 57.4067 88.0844 56.66C88.6444 55.9 89.311 54.92 90.0844 53.72C90.871 52.5067 91.8044 51.04 92.8844 49.32C93.0044 49.1333 93.1577 49.0533 93.3444 49.08C93.531 49.1067 93.6777 49.1933 93.7844 49.34C93.9044 49.4867 93.911 49.6467 93.8044 49.82C92.6044 51.8733 91.5777 53.58 90.7244 54.94C89.8844 56.2867 89.151 57.36 88.5244 58.16C87.8977 58.9467 87.3177 59.5067 86.7844 59.84C86.251 60.1733 85.7044 60.34 85.1444 60.34ZM98.6444 60.34C98.0577 60.34 97.6177 60.2267 97.3244 60C97.0444 59.7867 96.871 59.5133 96.8044 59.18C96.7377 58.8333 96.7377 58.4733 96.8044 58.1C96.871 57.7133 96.9577 57.36 97.0644 57.04L98.4044 53.12C98.591 52.6133 98.6644 52.1733 98.6244 51.8C98.5844 51.4133 98.3244 51.22 97.8444 51.22C97.391 51.22 96.8844 51.42 96.3244 51.82C95.7777 52.2067 95.2177 52.76 94.6444 53.48C94.071 54.2 93.5044 55.0533 92.9444 56.04C92.3844 57.0133 91.8644 58.0867 91.3844 59.26L91.2044 59.78C91.151 59.9533 91.0577 60.08 90.9244 60.16C90.791 60.2533 90.571 60.3 90.2644 60.3C90.051 60.3 89.851 60.2533 89.6644 60.16C89.4777 60.0667 89.4244 59.8933 89.5044 59.64L95.7644 40.34C95.8444 40.0733 95.9444 39.9 96.0644 39.82C96.1977 39.74 96.3977 39.7 96.6644 39.7C97.0777 39.7 97.3377 39.7667 97.4444 39.9C97.5644 40.02 97.5777 40.2133 97.4844 40.48L93.2044 53.62C93.6044 52.98 94.0177 52.4133 94.4444 51.92C94.8844 51.4267 95.3244 51.0067 95.7644 50.66C96.2177 50.3133 96.671 50.0533 97.1244 49.88C97.5777 49.7067 98.031 49.62 98.4844 49.62C99.0844 49.62 99.551 49.7733 99.8844 50.08C100.218 50.3733 100.404 50.8133 100.444 51.4C100.484 51.9867 100.351 52.7133 100.044 53.58L98.8444 57.02C98.6044 57.7133 98.491 58.1933 98.5044 58.46C98.531 58.7133 98.6977 58.84 99.0044 58.84C99.191 58.84 99.331 58.92 99.4244 59.08C99.5177 59.2267 99.551 59.4 99.5244 59.6C99.511 59.7867 99.431 59.9533 99.2844 60.1C99.1377 60.26 98.9244 60.34 98.6444 60.34ZM98.66 60.34C98.4733 60.34 98.3333 60.26 98.24 60.1C98.1467 59.9533 98.1133 59.7867 98.14 59.6C98.1533 59.4 98.2333 59.2267 98.38 59.08C98.5267 58.92 98.74 58.84 99.02 58.84C99.3667 58.84 99.7333 58.7133 100.12 58.46C100.507 58.2067 100.907 57.8533 101.32 57.4C101.72 56.9467 102.133 56.4133 102.56 55.8C102.987 55.1867 103.42 54.52 103.86 53.8C103.967 53.6267 104.113 53.5533 104.3 53.58C104.487 53.6067 104.64 53.6933 104.76 53.84C104.88 53.9733 104.887 54.1267 104.78 54.3C104.207 55.3 103.66 56.18 103.14 56.94C102.633 57.7 102.14 58.3333 101.66 58.84C101.167 59.3333 100.68 59.7067 100.2 59.96C99.7067 60.2133 99.1933 60.34 98.66 60.34ZM105.2 60.34C104.747 60.34 104.353 60.22 104.02 59.98C103.687 59.74 103.427 59.4 103.24 58.96C103.053 58.52 102.96 58 102.96 57.4C102.96 56.7867 103.053 56.1267 103.24 55.42C103.427 54.7133 103.707 54.02 104.08 53.34C104.453 52.66 104.907 52.04 105.44 51.48C105.973 50.92 106.587 50.4733 107.28 50.14C107.987 49.7933 108.76 49.62 109.6 49.62C110.107 49.62 110.653 49.7133 111.24 49.9C111.827 50.0733 112.353 50.32 112.82 50.64L112.46 52.02C111.807 51.6733 111.227 51.4533 110.72 51.36C110.213 51.2533 109.747 51.2 109.32 51.2C108.747 51.2 108.22 51.3333 107.74 51.6C107.273 51.8667 106.853 52.22 106.48 52.66C106.12 53.0867 105.813 53.5667 105.56 54.1C105.307 54.62 105.113 55.14 104.98 55.66C104.847 56.18 104.78 56.6533 104.78 57.08C104.78 57.4133 104.82 57.7067 104.9 57.96C104.98 58.2133 105.093 58.4067 105.24 58.54C105.4 58.6733 105.58 58.74 105.78 58.74C106.273 58.74 106.833 58.4733 107.46 57.94C108.087 57.3933 108.753 56.5933 109.46 55.54C110.18 54.4867 110.913 53.2067 111.66 51.7L112.4 52.44C111.533 54.2267 110.673 55.7067 109.82 56.88C108.98 58.04 108.173 58.9067 107.4 59.48C106.627 60.0533 105.893 60.34 105.2 60.34ZM111.36 60.34C110.76 60.34 110.313 60.2267 110.02 60C109.74 59.7867 109.56 59.5133 109.48 59.18C109.413 58.8333 109.413 58.4733 109.48 58.1C109.547 57.7133 109.64 57.36 109.76 57.04L112 50.34C112.093 50.0733 112.2 49.9 112.32 49.82C112.453 49.74 112.647 49.7 112.9 49.7C113.313 49.7 113.573 49.7667 113.68 49.9C113.8 50.02 113.813 50.2133 113.72 50.48L111.52 57.02C111.293 57.7133 111.187 58.1933 111.2 58.46C111.227 58.7133 111.393 58.84 111.7 58.84C111.887 58.84 112.027 58.92 112.12 59.08C112.213 59.2267 112.247 59.4 112.22 59.6C112.207 59.7867 112.127 59.9533 111.98 60.1C111.847 60.26 111.64 60.34 111.36 60.34ZM111.355 60.34C111.169 60.34 111.029 60.26 110.935 60.1C110.842 59.9533 110.809 59.7867 110.835 59.6C110.849 59.4 110.929 59.2267 111.075 59.08C111.222 58.92 111.435 58.84 111.715 58.84C112.035 58.84 112.402 58.68 112.815 58.36C113.215 58.04 113.689 57.54 114.235 56.86C114.782 56.1667 115.429 55.2667 116.175 54.16C116.922 53.04 117.795 51.6867 118.795 50.1C118.915 49.9133 119.069 49.8333 119.255 49.86C119.455 49.8867 119.615 49.9733 119.735 50.12C119.855 50.2667 119.862 50.4267 119.755 50.6C118.622 52.52 117.642 54.1133 116.815 55.38C116.002 56.6333 115.289 57.6267 114.675 58.36C114.062 59.08 113.495 59.5933 112.975 59.9C112.442 60.1933 111.902 60.34 111.355 60.34ZM116.315 60.3C116.102 60.3 115.902 60.2533 115.715 60.16C115.529 60.0667 115.482 59.8933 115.575 59.64L118.575 50.34C118.669 50.0733 118.775 49.9 118.895 49.82C119.029 49.74 119.222 49.7 119.475 49.7C119.889 49.7 120.149 49.7667 120.255 49.9C120.375 50.02 120.389 50.2133 120.295 50.48L119.255 53.68C119.669 53.04 120.082 52.4667 120.495 51.96C120.922 51.4533 121.335 51.0267 121.735 50.68C122.149 50.3333 122.535 50.0733 122.895 49.9C123.269 49.7133 123.602 49.62 123.895 49.62C124.255 49.62 124.569 49.7067 124.835 49.88C125.102 50.0533 125.315 50.26 125.475 50.5C125.582 50.6467 125.622 50.8 125.595 50.96C125.569 51.1067 125.489 51.2533 125.355 51.4C125.209 51.5467 125.069 51.6533 124.935 51.72C124.802 51.7867 124.682 51.76 124.575 51.64C124.442 51.5333 124.295 51.44 124.135 51.36C123.975 51.2667 123.822 51.22 123.675 51.22C123.329 51.22 122.902 51.4133 122.395 51.8C121.889 52.1867 121.349 52.7333 120.775 53.44C120.202 54.1467 119.629 54.9867 119.055 55.96C118.482 56.92 117.955 57.9733 117.475 59.12L117.275 59.78C117.222 59.9533 117.122 60.08 116.975 60.16C116.842 60.2533 116.622 60.3 116.315 60.3Z" fill="#DB366E"/>
</svg>
